Coordinates
version=1
nRows=21
nColumns=33
inDegrees=yes

Units are S.I. units (second, meters, Newtons, ...)
Angles are in degrees.

endheader
time	ground_thorax_rot_x	ground_thorax_rot_y	ground_thorax_rot_z	ground_thorax_tx	ground_thorax_ty	ground_thorax_tz	clav_prot_r	clav_elev_r	scapula_abduction_r	scapula_elevation_r	scapula_upward_rot_r	scapula_winging_r	shoulder_elv_r	plane_of_elev_r	axial_rot_r	elbow_flexion_r	pro_sup_r	wrist_flex_r	wrist_dev_r	clav_prot_l	clav_elev_l	scapula_abduction_l	scapula_elevation_l	scapula_upward_rot_l	scapula_winging_l	shoulder_elv_l	plane_of_elev_l	axial_rot_l	elbow_flexion_l	pro_sup_l	wrist_flex_l	wrist_dev_l
      8.34000000	    -16.79080241	    -38.03116388	     61.91518744	    -39.10790651	    786.72000795	     10.77670021	      8.79455940	    -45.00000000	     36.73798010	    -45.00000000	    -45.00000000	  -2256.80169444	  -1738.88540242	     26.96292350	     77.14225343	   1809.28681642	     29.42170465	     17.42958283	     10.69133992	     13.12209452	     37.21384033	    -28.34838339	    -45.00000000	    -45.00000000	   1876.22918092	  -3342.70309420	    139.83020670	    152.79749122	    366.95700442	     29.16958766	      8.39226355	    -18.60586531
      8.35000000	    -16.99645505	    -37.86928394	     61.88823192	    -39.26147685	    786.68424739	     10.94981375	      8.13080718	    -45.00000000	     36.30485304	    -45.00000000	    -45.00000000	  -2256.97944894	  -1738.64842009	     27.01328090	     77.00679839	   1809.57263288	     29.51676844	     17.06981241	     10.75682363	     13.16287860	     36.96868195	    -28.90845808	    -45.00000000	    -45.00000000	   1876.44639546	  -3343.10472083	    139.85774003	    152.58239768	    366.87972271	     29.31771033	      8.34109407	    -18.73625700
      8.36000000	    -17.01789617	    -37.95872179	     61.69799925	    -39.47229259	    786.59520706	     11.10795688	      8.29948649	    -45.00000000	     36.41506798	    -45.00000000	    -45.00000000	  -2256.81213991	  -1738.81530384	     27.02514526	     77.06016826	   1809.39001453	     29.60486667	     17.54348578	     10.68126710	     13.35872051	     37.35659033	    -28.48494489	    -45.00000000	    -45.00000000	   1876.20600860	  -3342.66435167	    139.74620319	    152.70559770	    367.02928301	     29.38597990	      8.26517239	    -18.60220996
      8.37000000	    -16.92504294	    -38.01027640	     61.80792570	    -39.72199460	    786.46253203	     11.23941376	      8.17489670	    -45.00000000	     36.42704039	    -45.00000000	    -45.00000000	  -2256.76678049	  -1738.88663788	     26.97162766	     76.94678062	   1809.23137387	     29.73358229	     16.92560264	     10.87068735	     13.09520222	     36.83939793	    -28.97999944	    -45.00000000	    -45.00000000	   1876.51829973	  -3343.32854923	    139.97946360	    152.96485505	    366.78987651	     29.45449034	      8.37127617	    -18.75428397
      8.38000000	    -17.02893680	    -37.91925052	     61.68537677	    -40.01942243	    786.28325019	     11.35155391	      8.25152844	    -45.00000000	     36.47037587	    -45.00000000	    -45.00000000	  -2256.79065603	  -1738.85248298	     26.92232217	     76.95810961	   1809.22658550	     29.77272498	     17.44404497	     10.75966019	     13.27422441	     37.27656066	    -28.61237552	    -45.00000000	    -45.00000000	   1876.17267035	  -3342.83271725	    139.81591648	    152.98243071	    366.98124268	     29.50629220	      8.30394280	    -18.66217040
      8.39000000	    -17.05282065	    -37.90624413	     61.62641977	    -40.34355373	    786.07215241	     11.43555037	      8.20803598	    -45.00000000	     36.43014084	    -45.00000000	    -45.00000000	  -2256.83814721	  -1738.81205678	     26.96154095	     76.92347872	   1809.35048491	     29.84206529	     17.19254582	     10.87371307	     13.21198602	     37.04829684	    -28.64246579	    -45.00000000	    -45.00000000	   1876.32537496	  -3342.93107749	    139.66608027	    153.09308591	    366.88270188	     29.54992100	      8.37668208	    -18.74600342
      8.40000000	    -17.04495275	    -37.90067409	     61.63018256	    -40.69370244	    785.83461217	     11.49367479	      8.23836592	    -45.00000000	     36.20956104	    -45.00000000	    -45.00000000	  -2256.94453342	  -1738.73310452	     27.07356546	     76.85659101	   1809.29347607	     29.85131021	     17.52698049	     10.72459257	     13.24062904	     37.37251644	    -28.52216376	    -45.00000000	    -45.00000000	   1876.17571305	  -3342.74037487	    139.81015539	    153.22593584	    367.12443526	     29.54655253	      8.30909755	    -18.71968401
      8.41000000	    -17.08736058	    -37.92651251	     61.48117657	    -41.07554379	    785.57178975	     11.52737245	      8.19746390	    -45.00000000	     36.48108986	    -45.00000000	    -45.00000000	  -2256.85206604	  -1738.80832934	     27.00722827	     76.90066946	   1809.37683838	     29.95071663	     17.09688117	     10.92101079	     13.21191963	     36.88175286	    -28.67829499	    -45.00000000	    -45.00000000	   1876.52570125	  -3343.01456708	    139.59708621	    153.28880012	    366.87689921	     29.58699587	      8.40784908	    -18.77723678
      8.42000000	    -17.09708409	    -37.81003907	     61.44264320	    -41.48290910	    785.29196493	     11.53515801	      8.20896639	    -45.00000000	     36.51267686	    -45.00000000	    -45.00000000	  -2256.84676693	  -1738.72397712	     26.95426260	     76.90045583	   1809.21571714	     29.99394706	     17.44789442	     10.82484900	     13.24096604	     37.25911311	    -28.59025479	    -45.00000000	    -45.00000000	   1876.19636706	  -3342.86166906	    139.76529010	    153.31959830	    366.98895143	     29.59633908	      8.37173513	    -18.74386864
      8.43000000	    -17.17554287	    -37.78165011	     61.34753447	    -41.91239251	    785.00146488	     11.51668497	      8.20740142	    -45.00000000	     36.42750133	    -45.00000000	    -45.00000000	  -2256.91291978	  -1738.70615920	     27.00097177	     76.90986173	   1809.22329069	     30.07907373	     17.21889499	     10.92496128	     13.19078258	     37.06365411	    -28.63859626	    -45.00000000	    -45.00000000	   1876.35513922	  -3342.89867092	    139.62003943	    153.33991363	    366.85740750	     29.61412851	      8.43317687	    -18.77908987
      8.44000000	    -17.20616350	    -37.76264116	     61.34435043	    -42.37187664	    784.69897794	     11.47180048	      8.21631548	    -45.00000000	     36.27284710	    -45.00000000	    -45.00000000	  -2257.00923223	  -1738.64696380	     27.07833257	     76.84243874	   1809.24019346	     30.09948251	     17.50337082	     10.76787465	     13.21869076	     37.32099948	    -28.57106099	    -45.00000000	    -45.00000000	   1876.25911234	  -3342.70456340	    139.76716342	    153.38928318	    366.99273466	     29.59822546	      8.37320602	    -18.76152701
      8.45000000	    -17.26090873	    -37.68349243	     61.22374844	    -42.85922756	    784.39204149	     11.40286938	      8.22798540	    -45.00000000	     36.42857865	    -45.00000000	    -45.00000000	  -2256.99443686	  -1738.64328723	     27.03025634	     76.88980689	   1809.22257745	     30.21647126	     17.21344098	     10.92881918	     13.20591426	     37.02449294	    -28.71217411	    -45.00000000	    -45.00000000	   1876.48406629	  -3342.85916637	    139.60954854	    153.41259885	    366.90733388	     29.60314313	      8.42848728	    -18.80058085
      8.46000000	    -17.31637973	    -37.59736908	     61.14543487	    -43.38258097	    784.08318702	     11.31390006	      8.20916135	    -45.00000000	     36.29006735	    -45.00000000	    -45.00000000	  -2257.06037962	  -1738.55810923	     27.07597515	     76.86075226	   1809.16887116	     30.25699181	     17.56574527	     10.78227817	     13.20661727	     37.41256852	    -28.56387059	    -45.00000000	    -45.00000000	   1876.23561867	  -3342.59664537	    139.71336450	    153.38505687	    367.00934298	     29.59587590	      8.38262846	    -18.79078915
      8.47000000	    -17.38373874	    -37.58550013	     61.04857392	    -43.95098848	    783.77611371	     11.21068794	      8.22206576	    -45.00000000	     36.43915709	    -45.00000000	    -45.00000000	  -2257.06395574	  -1738.62102030	     27.03576550	     76.85126652	   1809.22700861	     30.37808012	     17.19308968	     10.93856872	     13.21101880	     36.94542168	    -28.80575946	    -45.00000000	    -45.00000000	   1876.63519804	  -3342.89674744	    139.57662991	    153.45208074	    366.83017067	     29.60043237	      8.42488347	    -18.79528666
      8.48000000	    -17.42148995	    -37.48234947	     60.87244805	    -44.57389501	    783.47314956	     11.09739179	      8.20909948	    -45.00000000	     36.42848749	    -45.00000000	    -45.00000000	  -2257.00516456	  -1738.52436534	     27.11919545	     76.81675363	   1809.09628538	     30.44834603	     17.52499697	     10.82760043	     13.22213767	     37.31284299	    -28.65853742	    -45.00000000	    -45.00000000	   1876.36608254	  -3342.70001130	    139.71252505	    153.39590713	    366.94115251	     29.59304668	      8.40599649	    -18.80957404
      8.49000000	    -17.50921474	    -37.43306438	     60.74732925	    -45.25430498	    783.17778452	     10.97656280	      8.21546235	    -45.00000000	     36.44171817	    -45.00000000	    -45.00000000	  -2257.07862758	  -1738.49762709	     27.17262186	     76.76298917	   1809.19241470	     30.55367447	     17.29949468	     10.91038810	     13.22081992	     37.02020203	    -28.82404627	    -45.00000000	    -45.00000000	   1876.68337199	  -3342.83953582	    139.56367789	    153.45083703	    366.86245486	     29.57694238	      8.42249329	    -18.81674017
      8.50000000	    -17.61186838	    -37.34452717	     60.59139751	    -45.99615385	    782.88934934	     10.84583435	      8.20601509	    -45.00000000	     36.42035787	    -45.00000000	    -45.00000000	  -2257.11014686	  -1738.40931941	     27.22921063	     76.68436040	   1809.19888296	     30.62137984	     17.52399702	     10.82150002	     13.23622384	     37.23661252	    -28.79590644	    -45.00000000	    -45.00000000	   1876.60303978	  -3342.67306096	    139.62185738	    153.46581456	    366.93277297	     29.54468277	      8.40299044	    -18.82700252
      8.51000000	    -17.72294035	    -37.29019963	     60.42391149	    -46.79475751	    782.60885132	     10.70211150	      8.20761661	    -45.00000000	     36.44435395	    -45.00000000	    -45.00000000	  -2257.16324192	  -1738.37958917	     27.31616419	     76.58481507	   1809.30409622	     30.71336799	     17.37893671	     10.86888568	     13.23520599	     36.99273614	    -28.94998832	    -45.00000000	    -45.00000000	   1876.89009164	  -3342.78416426	    139.50968821	    153.55031346	    366.85665344	     29.50441344	      8.42465711	    -18.82794603
      8.52000000	    -17.82410855	    -37.18442143	     60.29054324	    -47.65316702	    782.33288791	     10.53978533	      8.20389596	    -45.00000000	     36.43913231	    -45.00000000	    -45.00000000	  -2257.16829884	  -1738.27666831	     27.33115712	     76.48447397	   1809.28681143	     30.79109556	     17.53651845	     10.80717695	     13.27820495	     37.22257934	    -28.93451295	    -45.00000000	    -45.00000000	   1876.79915062	  -3342.60368346	    139.58964989	    153.61725563	    366.89329859	     29.43404336	      8.41626910	    -18.83489797
      8.53000000	    -17.97296046	    -37.11332671	     60.05932902	    -48.56586543	    782.06270169	     10.35876254	      8.20010243	    -45.00000000	     36.47495372	    -45.00000000	    -45.00000000	  -2257.23924137	  -1738.24887313	     27.48921236	     76.37257400	   1809.40366710	     30.86740212	     17.46054977	     10.81289421	     13.24761986	     36.97602088	    -29.10168048	    -45.00000000	    -45.00000000	   1877.12420784	  -3342.68423600	    139.44232415	    153.71832660	    366.79250969	     29.35249973	      8.45103895	    -18.82608696
      8.54000000	    -18.07859890	    -36.97626047	     59.91584860	    -49.53922760	    781.79578599	     10.15861807	      8.18193244	    -45.00000000	     36.38857582	    -45.00000000	    -45.00000000	  -2257.35317793	  -1738.01987772	     27.60857072	     76.22630805	   1809.61466962	     30.89814093	     17.64123615	     10.70688968	     13.30296770	     37.24171085	    -29.05275122	    -45.00000000	    -45.00000000	   1877.14176411	  -3342.47318090	    139.48717891	    153.86179959	    367.08734639	     29.19967397	      8.40988175	    -18.88096934
